<svg width="96" height="48" viewBox="0 0 96 48" fill="none" xmlns="http://www.w3.org/2000/svg">
<g clip-path="url(#clip0_1071_1556)">
<path d="M3.90048 13.3047C4.06579 13.0791 4.26466 12.8813 4.48992 12.7182C4.77987 12.5018 5.09019 12.3151 5.41632 12.1611C5.79943 11.9799 6.19869 11.8366 6.60864 11.7329C7.07208 11.6158 7.54811 11.5583 8.0256 11.5619C8.80834 11.5506 9.58562 11.6961 10.3133 11.99C10.974 12.2607 11.5715 12.6696 12.0672 13.1903C12.5668 13.7274 12.9492 14.366 13.1894 15.0641C13.4578 15.8394 13.5907 16.6565 13.5821 17.4784V26.4788H9.70944V18.1597C9.70944 17.2839 9.48032 16.5743 9.02208 16.0308C8.56384 15.4873 7.9136 15.2159 7.07136 15.2166C6.11712 15.2166 5.34912 15.5023 4.76736 16.0738C4.1856 16.6453 3.89568 17.4455 3.8976 18.4744V26.4739H0V6.90234H3.90048V13.3047Z" fill="#7953C3"/>
<path d="M22.618 11.5306C23.671 11.5209 24.7153 11.7249 25.69 12.1308C26.6028 12.5096 27.4363 13.0623 28.1457 13.7592C28.8414 14.4505 29.3946 15.2763 29.7729 16.1882C30.169 17.1365 30.3696 18.1575 30.3623 19.188C30.3694 20.1938 30.1768 21.1907 29.7958 22.1188C29.4149 23.0468 28.8536 23.8869 28.1457 24.5884C27.4365 25.2856 26.603 25.8384 25.69 26.2169C24.7154 26.6232 23.671 26.8272 22.618 26.817C21.5663 26.8267 20.5228 26.6275 19.546 26.2306C18.6311 25.8613 17.7962 25.3131 17.0884 24.6168C16.3935 23.928 15.8443 23.1017 15.4746 22.1888C15.0872 21.2379 14.8913 20.2174 14.8986 19.188C14.8933 18.1796 15.0854 17.1801 15.4635 16.2481C15.8416 15.316 16.3982 14.4699 17.1009 13.7592C17.8046 13.0605 18.6351 12.5078 19.546 12.1317C20.5206 11.7254 21.5649 11.521 22.618 11.5306ZM22.618 15.1306C22.0938 15.1273 21.5742 15.2293 21.0887 15.4307C20.6245 15.6222 20.2042 15.9094 19.8542 16.2742C19.5028 16.6443 19.2262 17.081 19.0401 17.5596C18.8398 18.078 18.7397 18.6309 18.7454 19.188C18.7393 19.7442 18.8347 20.2967 19.0266 20.8174C19.2021 21.2944 19.469 21.731 19.8119 22.1018C20.1629 22.4764 20.5855 22.7738 21.0538 22.9755C21.5221 23.1773 22.026 23.2791 22.5345 23.2747C23.3137 23.2822 24.0774 23.0523 24.7274 22.6146C25.3774 22.1769 25.8841 21.5514 26.1825 20.8184C26.392 20.3019 26.4968 19.7477 26.4906 19.189C26.4968 18.6319 26.3967 18.0788 26.1959 17.5605C26.0101 17.082 25.7339 16.6453 25.3828 16.2752C25.0324 15.9108 24.6122 15.6237 24.1482 15.4316C23.6625 15.2299 23.1425 15.1276 22.618 15.1306Z" fill="#7953C3"/>
<path d="M35.4698 13.2733C35.6779 13.0646 35.8981 12.8687 36.1293 12.6869C36.4056 12.4724 36.7017 12.2858 37.0135 12.1297C37.3677 11.9522 37.7394 11.8132 38.1223 11.7153C38.5583 11.6067 39.0059 11.5542 39.4548 11.5589C40.2413 11.5521 41.0204 11.714 41.7415 12.0339C42.4748 12.3718 43.1095 12.8975 43.5837 13.5597C44.1487 12.9471 44.8252 12.4521 45.5757 12.1023C46.3437 11.7407 47.2512 11.5599 48.2983 11.5599C49.1024 11.5465 49.9018 11.6867 50.6551 11.9733C51.3197 12.2339 51.9205 12.6389 52.4157 13.16C52.9098 13.6869 53.2878 14.315 53.5245 15.0025C53.7853 15.7695 53.9133 16.5768 53.9028 17.3884V26.4788H50.034V18.0453C50.034 17.1877 49.8237 16.5019 49.4032 15.9877C48.9828 15.4736 48.3885 15.2165 47.6205 15.2165C46.7412 15.2165 46.0349 15.4974 45.5018 16.0591C44.9687 16.6208 44.7021 17.3969 44.7021 18.3874V26.4729H40.8621V18.0453C40.8621 17.1877 40.6516 16.5019 40.2304 15.9877C39.8093 15.4736 39.2154 15.2165 38.4487 15.2165C37.5687 15.2165 36.8624 15.4974 36.33 16.0591C35.7975 16.6208 35.5296 17.3969 35.5264 18.3874V26.4729H31.625V11.8111H35.4698V13.2733Z" fill="#7953C3"/>
<path d="M69.6211 23.3317C68.929 24.3996 67.9893 25.2778 66.8851 25.8887C65.7715 26.5077 64.4102 26.8173 62.8013 26.8173C61.6416 26.8173 60.5987 26.6218 59.6726 26.2308C58.781 25.8639 57.9701 25.32 57.287 24.6307C56.6163 23.9443 56.0952 23.1217 55.7578 22.2164C55.3963 21.2489 55.2156 20.2213 55.225 19.1863C55.2194 18.1693 55.4051 17.1606 55.7721 16.2148C56.1243 15.3018 56.654 14.4707 57.3293 13.7712C58.0186 13.0667 58.8391 12.5094 59.7427 12.132C60.7219 11.7233 61.7718 11.5192 62.8301 11.5318C63.9706 11.5318 64.9901 11.7224 65.8886 12.1036C66.75 12.4598 67.5288 12.9951 68.1754 13.6754C68.809 14.3531 69.3009 15.1549 69.6211 16.032C69.9646 16.9785 70.1357 17.9808 70.1261 18.9898C70.1261 19.2752 70.1168 19.5704 70.0982 19.8754C70.079 20.1803 70.0694 20.3514 70.0694 20.3895H59.0698C59.2752 21.3233 59.7101 22.0662 60.3744 22.6181C61.0387 23.17 61.8758 23.4463 62.8858 23.447C63.7651 23.447 64.5181 23.2707 65.1446 22.9182C65.763 22.5737 66.2959 22.0899 66.7027 21.5038L69.6211 23.3317ZM62.8051 14.7887C61.888 14.7887 61.1257 15.022 60.5184 15.4885C59.911 15.9551 59.4762 16.6068 59.2138 17.4435H66.2006C65.9952 16.5481 65.5744 15.8815 64.9382 15.4436C64.3084 15.008 63.5626 14.7794 62.8013 14.7887H62.8051Z" fill="#7953C3"/>
<path d="M85.6162 23.3316C84.9241 24.3996 83.9845 25.2778 82.8802 25.8887C81.7673 26.5077 80.4063 26.8173 78.7974 26.8173C77.6377 26.8173 76.5948 26.6218 75.6687 26.2308C74.7771 25.8639 73.9661 25.32 73.2831 24.6307C72.6123 23.9443 72.0913 23.1216 71.7538 22.2164C71.3924 21.2489 71.2117 20.2213 71.221 19.1863C71.2155 18.1693 71.4012 17.1606 71.7682 16.2148C72.1201 15.3016 72.6497 14.4704 73.3254 13.7711C74.0159 13.0659 74.8381 12.5085 75.7436 12.132C76.7225 11.7234 77.7721 11.5193 78.83 11.5318C79.9711 11.5318 80.991 11.7224 81.8895 12.1036C82.7509 12.4598 83.5297 12.9951 84.1762 13.6754C84.8099 14.3529 85.3015 15.1548 85.621 16.032C85.965 16.9784 86.1361 17.9808 86.126 18.9898C86.126 19.2752 86.1167 19.5704 86.0982 19.8754C86.0799 20.1803 86.0703 20.3514 86.0703 20.3895H75.0649C75.2703 21.3233 75.7055 22.0662 76.3705 22.6181C77.0354 23.17 77.8726 23.4463 78.8818 23.447C79.7612 23.447 80.5142 23.2707 81.1407 22.9182C81.7588 22.5737 82.2914 22.0899 82.6978 21.5038L85.6162 23.3316ZM78.8002 14.7887C77.8838 14.7887 77.1215 15.022 76.5135 15.4885C75.9055 15.9551 75.4703 16.6067 75.2079 17.4434H82.1958C81.9903 16.5494 81.5676 15.8834 80.9276 15.4455C80.2999 15.0106 79.5566 14.7814 78.7974 14.7887H78.8002Z" fill="#7953C3"/>
<path d="M95.9999 11.8169V15.3573H92.4642V21.2435C92.4642 21.9101 92.6185 22.3816 92.927 22.6579C93.2354 22.9342 93.7174 23.0746 94.3727 23.0792H96.0047V26.4788H94.0914C92.1644 26.4788 90.7612 26.0552 89.8818 25.2081C89.0025 24.3609 88.5631 23.1085 88.5638 21.4507V15.3573H86.4863V11.8169H88.5638V8.04492H92.4642V11.8169H95.9999Z" fill="#7953C3"/>
<path d="M52.2543 9.39515C51.9673 9.39508 51.6853 9.31859 51.4363 9.17327L42.7503 4.11689L34.0949 9.15861C33.7149 9.37987 33.2641 9.43837 32.8418 9.32123C32.4194 9.2041 32.06 8.92093 31.8427 8.53402C31.6254 8.1471 31.568 7.68814 31.683 7.2581C31.7981 6.82806 32.0762 6.46216 32.4562 6.2409L41.9314 0.722187C42.1808 0.5766 42.4633 0.5 42.7507 0.5C43.0382 0.5 43.3207 0.5766 43.5701 0.722187L53.0741 6.25948C53.3885 6.44412 53.6343 6.72912 53.7735 7.07037C53.9127 7.41162 53.9376 7.79008 53.8442 8.14716C53.7508 8.50424 53.5445 8.82003 53.257 9.04563C52.9696 9.27124 52.6172 9.39409 52.2543 9.39515Z" fill="#7953C3"/>
<path d="M10.0723 41.0234H3.5088V47.2H0V31.4131H3.5088V37.7509H10.0723V31.4131H13.5811V47.2H10.0723V41.0234Z" fill="#102D69"/>
<path d="M21.1194 47.5005C19.1425 47.5005 17.6298 47.0356 16.5815 46.1057C15.5332 45.1758 14.9572 43.897 14.8535 42.2692H18.3623C18.3761 42.5725 18.437 42.8718 18.5428 43.1557C18.6493 43.442 18.8154 43.7014 19.0295 43.9162C19.2766 44.1572 19.5711 44.3421 19.8935 44.4587C20.3192 44.6084 20.7681 44.6786 21.2183 44.6659C22.1079 44.6659 22.7754 44.5046 23.2209 44.1821C23.6663 43.8595 23.8903 43.4522 23.8929 42.9602C23.9029 42.6825 23.81 42.4111 23.6327 42.1998C23.4313 41.9801 23.1888 41.8036 22.9194 41.6807C22.5803 41.5225 22.2266 41.3991 21.8634 41.3122C21.4641 41.2125 21.0455 41.1164 20.6078 41.0239C19.9889 40.8714 19.355 40.6987 18.706 40.5058C18.0769 40.3238 17.4808 40.0396 16.9406 39.6643C16.4066 39.2892 15.9618 38.7972 15.6388 38.2245C15.2996 37.6334 15.13 36.8691 15.13 35.9313C15.1232 35.2694 15.2541 34.6135 15.514 34.0067C15.7693 33.4166 16.1569 32.8957 16.6458 32.4858C17.1872 32.0388 17.8058 31.6986 18.4698 31.4829C19.2711 31.2244 20.1082 31.1 20.9486 31.1144C21.8046 31.0995 22.6573 31.228 23.4724 31.4947C24.1537 31.7194 24.7845 32.0795 25.3281 32.5542C25.8336 33.0082 26.2387 33.5662 26.5166 34.1915C26.81 34.8578 26.9862 35.5714 27.0369 36.2998H23.4945C23.4766 35.7027 23.2522 35.1312 22.8609 34.6861C22.4686 34.241 21.7966 34.0185 20.8449 34.0185C20.1351 34.0185 19.5694 34.1566 19.1476 34.4329C18.9465 34.5568 18.7817 34.7334 18.6703 34.9441C18.5588 35.1548 18.5049 35.3921 18.514 35.6313C18.5032 35.9354 18.6 36.2333 18.7866 36.4709C18.9864 36.7085 19.233 36.9007 19.5105 37.0349C19.8482 37.2021 20.2021 37.3331 20.5665 37.4259C20.9658 37.5334 21.3844 37.6419 21.8222 37.7484C22.4558 37.8872 23.1009 38.0485 23.7575 38.2323C24.3903 38.4064 24.9962 38.6696 25.5575 39.0142C26.0956 39.3497 26.5484 39.8094 26.8794 40.3563C27.2193 40.9082 27.3889 41.6302 27.3882 42.5223C27.3957 43.2091 27.2568 43.8894 26.9812 44.5163C26.7033 45.131 26.2889 45.6714 25.7706 46.0949C25.1856 46.5663 24.5167 46.9185 23.8007 47.132C22.9301 47.3907 22.0263 47.5149 21.1194 47.5005Z" fill="#102D69"/>
<path d="M28.791 31.4141H40.1277V34.6397H32.2998V37.6131H39.543V40.7468H32.2998V43.9724H40.1545V47.198H28.791V31.4141Z" fill="#102D69"/>
</g>
<defs>
<clipPath id="clip0_1071_1556">
<rect width="96" height="47" fill="white" transform="translate(0 0.5)"/>
</clipPath>
</defs>
</svg>
